# xmcd
#
# Track frame offsets:
# 150
# 13167
# 29360
# 42045
# 54510
# 67142
# 80900
# 91935
# 103590
# 115350
# 121427
# 133135
# 144232
# 155920
# 167092
# 176097
# 188005
# 200470
#
# Disc length: 2847 seconds
#
#
# Revision: 0
# Processed by: cddbd v1.5.1PL0 Copyright (c) Steve Scherf et al.
# Submitted via: FreeRIP 2.90 
#
DISCID=050b1d12
DTITLE=Country Various - 18 Golden Country Favourites
DYEAR=1900
DGENRE=Country
TTITLE0=Four In The Morning - Faron Young
TTITLE1=I Fall To Pieces /Billie Jo Spears
TTITLE2=Woverton Mountain - Claude King
TTITLE3=Stand By Your Man - Lynn Anderson
TTITLE4=Take This Job And Shove It - Johnny Paycheck
TTITLE5=Tol I Can Make It On My Own /Tammy Wynette
TTITLE6=Thing To Talk About - Stonewall Jackson
TTITLE7=I've Loved And Lost Again - Patsy Cline
TTITLE8=Little Green Apples - Roger Miller
TTITLE9=Have I Told You Lately That I Love You - Jim Reeves
TTITLE10=Makin' Believe - Dolly Parton
TTITLE11=Blue Eyes Crying In The Rain - Johnny Russell
TTITLE12=D.I.V.O.R.C.E. - Tammy Wynette
TTITLE13=Gotta Travel On - Boxcar Willie
TTITLE14=Rocky Top - Lynn Anderson
TTITLE15=I Can't Stop Loving You /Don Gibson
TTITLE16=The Cheatin' Kind - Billie Jo Spears
TTITLE17=Ruby Don't Take Your Love To Town /Kenney Rogers
EXTD=
EXTT0=
EXTT1=
EXTT2=
EXTT3=
EXTT4=
EXTT5=
EXTT6=
EXTT7=
EXTT8=
EXTT9=
EXTT10=
EXTT11=
EXTT12=
EXTT13=
EXTT14=
EXTT15=
EXTT16=
EXTT17=
PLAYORDER=
